<svg width="23" height="14" viewBox="0 0 23 14" fill="none" xmlns="http://www.w3.org/2000/svg">
<path fill-rule="evenodd" clip-rule="evenodd" d="M10.9199 13.4456H12.2349C12.2349 13.4456 12.6322 13.4005 12.8349 13.1739C13.0216 12.966 13.0156 12.5756 13.0156 12.5756C13.0156 12.5756 12.99 10.748 13.8089 10.4788C14.6162 10.2138 15.6529 12.2453 16.7517 13.0264C17.5825 13.6175 18.2138 13.488 18.2138 13.488L21.152 13.4456C21.152 13.4456 22.6888 13.3476 21.96 12.0958C21.9005 11.9934 21.5357 11.17 19.7757 9.47777C17.9335 7.7067 18.1801 7.99315 20.3992 4.92958C21.7508 3.06383 22.2911 1.92476 22.1222 1.4369C21.9612 0.972243 20.9672 1.09508 20.9672 1.09508L17.6593 1.11641C17.6593 1.11641 17.4141 1.08178 17.2322 1.19436C17.0546 1.30481 16.94 1.5622 16.94 1.5622C16.94 1.5622 16.4166 3.00598 15.7182 4.23382C14.2452 6.8247 13.6563 6.96145 13.4155 6.80058C12.8555 6.42563 12.9953 5.29432 12.9953 4.49059C12.9953 1.97984 13.363 0.932958 12.2794 0.66197C11.9198 0.571945 11.6552 0.512561 10.7356 0.502955C9.55528 0.49027 8.55624 0.506674 7.99056 0.793745C7.61426 0.984633 7.32395 1.41 7.50076 1.43444C7.71939 1.46476 8.21456 1.57272 8.4771 1.94301C8.8161 2.42068 8.80414 3.49354 8.80414 3.49354C8.80414 3.49354 8.99888 6.44915 8.34927 6.81635C7.90336 7.06817 7.2917 6.55403 5.97845 4.20352C5.30557 2.99947 4.79753 1.66863 4.79753 1.66863C4.79753 1.66863 4.69958 1.41991 4.52484 1.28688C4.3128 1.12569 4.01651 1.07434 4.01651 1.07434L0.873067 1.09569C0.873067 1.09569 0.401165 1.10931 0.227943 1.32183C0.0738363 1.51084 0.215705 1.90188 0.215705 1.90188C0.215705 1.90188 2.6767 7.86569 5.46326 10.8712C8.01836 13.6266 10.9199 13.4456 10.9199 13.4456Z" fill="white" fill-opacity="0.7"/>
</svg>
