<svg width="21" height="21" viewBox="0 0 21 21" fill="none" xmlns="http://www.w3.org/2000/svg">
<rect width="21" height="21" fill="#3E2113"/>
<path d="M13.6404 5.77778C13.6404 7.44987 12.2847 8.80556 10.6121 8.80556V10.3056C13.1129 10.3056 15.1404 8.2785 15.1404 5.77778H13.6404ZM10.6121 8.80556C8.93947 8.80556 7.58375 7.44987 7.58375 5.77778H6.08375C6.08375 8.2785 8.11125 10.3056 10.6121 10.3056V8.80556ZM7.58375 5.77778C7.58375 4.10569 8.93947 2.75 10.6121 2.75V1.25C8.11125 1.25 6.08375 3.27705 6.08375 5.77778H7.58375ZM10.6121 2.75C12.2847 2.75 13.6404 4.10569 13.6404 5.77778H15.1404C15.1404 3.27705 13.1129 1.25 10.6121 1.25V2.75ZM16.4742 15.6944C16.4742 16.1701 16.069 16.8026 14.9522 17.361C13.8802 17.8969 12.3468 18.25 10.6121 18.25V19.75C12.5291 19.75 14.3018 19.3631 15.6229 18.7027C16.8991 18.0646 17.9742 17.0444 17.9742 15.6944H16.4742ZM10.6121 18.25C8.87737 18.25 7.34397 17.8969 6.272 17.361C5.15514 16.8026 4.75 16.1701 4.75 15.6944H3.25C3.25 17.0444 4.32502 18.0646 5.60126 18.7027C6.92239 19.3631 8.69503 19.75 10.6121 19.75V18.25ZM4.75 15.6944C4.75 15.2188 5.15514 14.5863 6.272 14.0279C7.34397 13.492 8.87737 13.1389 10.6121 13.1389V11.6389C8.69503 11.6389 6.92239 12.0258 5.60126 12.6862C4.32502 13.3242 3.25 14.3445 3.25 15.6944H4.75ZM10.6121 13.1389C12.3468 13.1389 13.8802 13.492 14.9522 14.0279C16.069 14.5863 16.4742 15.2188 16.4742 15.6944H17.9742C17.9742 14.3445 16.8991 13.3242 15.6229 12.6862C14.3018 12.0258 12.5291 11.6389 10.6121 11.6389V13.1389Z" fill="#E7E2DF"/>
</svg>
