<svg width="50" height="50" viewBox="0 0 50 50" fill="none" xmlns="http://www.w3.org/2000/svg">
<circle cx="25" cy="25" r="24.5" stroke="#3C2010" stroke-opacity="0.5"/>
<path d="M35 25.75C35.4142 25.75 35.75 25.4142 35.75 25C35.75 24.5858 35.4142 24.25 35 24.25V25.75ZM14.4697 24.4697C14.1768 24.7626 14.1768 25.2374 14.4697 25.5303L19.2426 30.3033C19.5355 30.5962 20.0104 30.5962 20.3033 30.3033C20.5962 30.0104 20.5962 29.5355 20.3033 29.2426L16.0607 25L20.3033 20.7574C20.5962 20.4645 20.5962 19.9896 20.3033 19.6967C20.0104 19.4038 19.5355 19.4038 19.2426 19.6967L14.4697 24.4697ZM35 24.25L15 24.25V25.75L35 25.75V24.25Z" fill="#3C2010" fill-opacity="0.5"/>
</svg>
